<svg xmlns="http://www.w3.org/2000/svg" viewBox="0 0 67.56 55.88"><defs><style>.cls-1{fill:#364752;}.cls-2{fill:#e2ad00;}</style></defs><title>logo_1</title><g id="Layer_2" data-name="Layer 2"><g id="Layer_1-2" data-name="Layer 1"><path class="cls-1" d="M.08,16.4A.27.27,0,0,1,0,16.2V.28A.27.27,0,0,1,.08.08.28.28,0,0,1,.28,0H2.42a.33.33,0,0,1,.33.21L5,5.3q.07.14.14,0L7.39.21A.33.33,0,0,1,7.72,0H9.89a.28.28,0,0,1,.28.28V16.2a.28.28,0,0,1-.28.28H7.72a.28.28,0,0,1-.28-.28V5.93c0-.06,0-.09,0-.09s-.06,0-.09.07L5.27,10c-.06.14-.13.21-.19.21S5,10.17,4.9,10l-2-4.17s-.06-.07-.09-.06,0,0,0,.11V16.2a.28.28,0,0,1-.28.28H.28A.27.27,0,0,1,.08,16.4Z"/><path class="cls-1" d="M18,16.22l-.35-1.81a.13.13,0,0,0-.14-.09H14.6c-.08,0-.13,0-.14.09l-.38,1.81a.28.28,0,0,1-.31.26H11.63c-.22,0-.31-.1-.26-.31l3.13-13a.3.3,0,0,1,.31-.24h2.52a.31.31,0,0,1,.33.24l3.13,13v.09q0,.21-.26.21H18.32A.27.27,0,0,1,18,16.22Zm-2.94-4h2c.09,0,.13,0,.12-.12l-1-5.34s0-.07-.07-.07-.05,0-.07.07l-1.11,5.34C14.93,12.13,15,12.17,15.07,12.17Z"/><path class="cls-1" d="M28.92,3a.27.27,0,0,1,.08.2V5a.27.27,0,0,1-.08.2.28.28,0,0,1-.2.08H26.08a.1.1,0,0,0-.12.12V16.2a.27.27,0,0,1-.08.2.27.27,0,0,1-.2.08H23.52a.28.28,0,0,1-.28-.28V5.37a.1.1,0,0,0-.12-.12H20.57A.28.28,0,0,1,20.29,5V3.18a.28.28,0,0,1,.28-.28h8.15A.27.27,0,0,1,28.92,3Z"/><path class="cls-1" d="M37.46,5.19a.27.27,0,0,1-.2.08H32.74a.1.1,0,0,0-.12.12v3a.1.1,0,0,0,.12.12h2.59a.28.28,0,0,1,.28.28v1.79a.28.28,0,0,1-.28.28H32.74a.1.1,0,0,0-.12.12v3a.1.1,0,0,0,.12.12h4.52a.28.28,0,0,1,.28.28V16.2a.27.27,0,0,1-.08.2.27.27,0,0,1-.2.08H30.18a.28.28,0,0,1-.28-.28v-13a.28.28,0,0,1,.28-.28h7.09a.27.27,0,0,1,.2.08.27.27,0,0,1,.08.2V5A.27.27,0,0,1,37.46,5.19Z"/><path class="cls-1" d="M39.69,15.5a4.21,4.21,0,0,1-1.13-3.1V3.18a.28.28,0,0,1,.28-.28H41a.28.28,0,0,1,.28.28v9.42a1.86,1.86,0,0,0,.39,1.24,1.28,1.28,0,0,0,1,.46,1.26,1.26,0,0,0,1-.45,1.88,1.88,0,0,0,.38-1.25V3.18a.28.28,0,0,1,.28-.28h2.17a.28.28,0,0,1,.28.28v9.23a4.23,4.23,0,0,1-1.12,3.1,4,4,0,0,1-3,1.14A4.05,4.05,0,0,1,39.69,15.5Z"/><path class="cls-1" d="M49.12,15.64A3.28,3.28,0,0,1,48,13.09v-.43a.28.28,0,0,1,.28-.28H50.4a.33.33,0,0,1,.2.06.18.18,0,0,1,.08.15v.21a1.55,1.55,0,0,0,.38,1.11,1.3,1.3,0,0,0,1,.4,1.33,1.33,0,0,0,1.36-1.37,1.29,1.29,0,0,0-.46-1,15.82,15.82,0,0,0-1.73-1.2A20.84,20.84,0,0,1,49.49,9.5a4.9,4.9,0,0,1-1.11-1.31,3.51,3.51,0,0,1-.46-1.81A3.39,3.39,0,0,1,49,3.72a4.22,4.22,0,0,1,2.92-1,4.16,4.16,0,0,1,2.94,1A3.5,3.5,0,0,1,56,6.45v.26a.28.28,0,0,1-.28.28H53.6a.29.29,0,0,1-.2-.07.21.21,0,0,1-.08-.16V6.52a1.45,1.45,0,0,0-.38-1,1.46,1.46,0,0,0-1.94,0,1.28,1.28,0,0,0-.36,1,1.26,1.26,0,0,0,.4.92,12.7,12.7,0,0,0,1.67,1.25,23.55,23.55,0,0,1,2,1.45,4.47,4.47,0,0,1,1.06,1.27,3.34,3.34,0,0,1,.38,1.61A3.47,3.47,0,0,1,55,15.62a4.25,4.25,0,0,1-3,1A4.2,4.2,0,0,1,49.12,15.64Z"/><path class="cls-1" d="M56.77,16.4a.27.27,0,0,1-.08-.2V14.31a.71.71,0,0,1,.09-.35l4.8-8.57c0-.09,0-.14-.09-.14H57A.28.28,0,0,1,56.68,5V3.18a.27.27,0,0,1,.08-.2A.27.27,0,0,1,57,2.9h7.16a.28.28,0,0,1,.28.28V5.06a.71.71,0,0,1-.09.35L59.49,14c0,.1,0,.14.09.14h4.54a.28.28,0,0,1,.28.28V16.2a.28.28,0,0,1-.28.28H57A.27.27,0,0,1,56.77,16.4Z"/><path class="cls-1" d="M6.26,35.86l-2-6.78c0-.06-.07-.09-.12-.09H2.9a.1.1,0,0,0-.12.12v6.71a.28.28,0,0,1-.28.28H.33A.27.27,0,0,1,.13,36a.27.27,0,0,1-.08-.2V19.88a.28.28,0,0,1,.28-.28H4.75a4.05,4.05,0,0,1,2.2.6,4,4,0,0,1,1.48,1.7A5.68,5.68,0,0,1,9,24.4a5.36,5.36,0,0,1-.56,2.53,3.78,3.78,0,0,1-1.58,1.61c-.06,0-.09.06-.07.14l2.31,7.09a.26.26,0,0,1,0,.12q0,.21-.26.21H6.57A.3.3,0,0,1,6.26,35.86ZM2.78,22.06v4.69a.1.1,0,0,0,.12.12H4.33a1.69,1.69,0,0,0,1.38-.66,2.74,2.74,0,0,0,.53-1.77,2.87,2.87,0,0,0-.53-1.82,1.68,1.68,0,0,0-1.38-.67H2.9A.1.1,0,0,0,2.78,22.06Z"/><path class="cls-1" d="M11,35.17a4,4,0,0,1-1.13-3V26.44a4,4,0,0,1,1.13-3,4.24,4.24,0,0,1,3.06-1.08,4.24,4.24,0,0,1,3.06,1.08,4,4,0,0,1,1.13,3v5.72a4,4,0,0,1-1.13,3,4.21,4.21,0,0,1-3.06,1.09A4.21,4.21,0,0,1,11,35.17ZM12.77,20.8q-.07-.09,0-.22l1.28-2.24a.33.33,0,0,1,.33-.17h1.82c.12,0,.19,0,.22.1a.23.23,0,0,1,0,.23l-1.61,2.24a.35.35,0,0,1-.3.15H13A.25.25,0,0,1,12.77,20.8Zm2.39,12.68a1.75,1.75,0,0,0,.38-1.2v-6a1.74,1.74,0,0,0-.38-1.2,1.37,1.37,0,0,0-1.08-.42,1.38,1.38,0,0,0-1.07.42,1.71,1.71,0,0,0-.39,1.2v6a1.71,1.71,0,0,0,.39,1.2,1.38,1.38,0,0,0,1.07.42A1.38,1.38,0,0,0,15.16,33.48Z"/><path class="cls-1" d="M19.1,36a.27.27,0,0,1-.08-.2V33.93a.71.71,0,0,1,.09-.35L23.92,25c0-.09,0-.14-.09-.14H19.3a.28.28,0,0,1-.28-.28V22.79a.27.27,0,0,1,.08-.2.27.27,0,0,1,.2-.08h7.16a.28.28,0,0,1,.28.28v1.88a.71.71,0,0,1-.09.35L21.82,33.6c0,.1,0,.14.09.14h4.54a.28.28,0,0,1,.28.28v1.79a.28.28,0,0,1-.28.28H19.3A.27.27,0,0,1,19.1,36Zm2.82-15.5a1.36,1.36,0,0,1-.36-1,1.34,1.34,0,0,1,.36-1,1.27,1.27,0,0,1,1-.38,1.21,1.21,0,0,1,.93.36,1.37,1.37,0,0,1,.34,1,1.41,1.41,0,0,1-.34,1,1.19,1.19,0,0,1-.93.38A1.27,1.27,0,0,1,21.93,20.51Z"/><path class="cls-1" d="M33.92,35.84,33.57,34a.13.13,0,0,0-.14-.09H30.51c-.08,0-.13,0-.14.09L30,35.84a.28.28,0,0,1-.31.26H27.54c-.22,0-.31-.1-.26-.31l3.13-13a.3.3,0,0,1,.31-.24h2.52a.31.31,0,0,1,.33.24l3.13,13v.09q0,.21-.26.21H34.23A.27.27,0,0,1,33.92,35.84Zm-2.94-4h2c.09,0,.13,0,.12-.12l-1-5.34s0-.07-.07-.07-.05,0-.07.07l-1.11,5.34C30.84,31.75,30.88,31.79,31,31.79Z"/><path class="cls-1" d="M37.84,36a.27.27,0,0,1-.08-.2v-13a.28.28,0,0,1,.28-.28H40.2a.28.28,0,0,1,.28.28V33.62a.1.1,0,0,0,.12.12h4.52a.28.28,0,0,1,.28.28v1.79a.27.27,0,0,1-.08.2.27.27,0,0,1-.2.08H38A.27.27,0,0,1,37.84,36Z"/><path class="cls-1" d="M46.95,35.26a3.28,3.28,0,0,1-1.12-2.55v-.43a.28.28,0,0,1,.28-.28h2.12a.33.33,0,0,1,.2.06.18.18,0,0,1,.08.15v.21a1.55,1.55,0,0,0,.38,1.11,1.3,1.3,0,0,0,1,.4,1.33,1.33,0,0,0,1.36-1.37,1.29,1.29,0,0,0-.46-1,15.82,15.82,0,0,0-1.73-1.2,20.84,20.84,0,0,1-1.73-1.24,4.9,4.9,0,0,1-1.11-1.31A3.51,3.51,0,0,1,45.76,26a3.39,3.39,0,0,1,1.11-2.66,4.22,4.22,0,0,1,2.92-1,4.16,4.16,0,0,1,2.94,1,3.5,3.5,0,0,1,1.11,2.7v.26a.28.28,0,0,1-.28.28H51.43a.29.29,0,0,1-.2-.07.21.21,0,0,1-.08-.16v-.24a1.45,1.45,0,0,0-.38-1,1.46,1.46,0,0,0-1.94,0,1.28,1.28,0,0,0-.36,1,1.26,1.26,0,0,0,.4.92,12.7,12.7,0,0,0,1.67,1.25,23.55,23.55,0,0,1,2,1.45,4.47,4.47,0,0,1,1.06,1.27A3.34,3.34,0,0,1,54,32.52a3.47,3.47,0,0,1-1.14,2.72,4.25,4.25,0,0,1-3,1A4.2,4.2,0,0,1,46.95,35.26Z"/><path class="cls-1" d="M55.16,36a.27.27,0,0,1-.08-.2v-13a.28.28,0,0,1,.28-.28h2.17a.28.28,0,0,1,.28.28v4.87c0,.06,0,.1,0,.11s.06,0,.09-.06l3-5a.34.34,0,0,1,.33-.19h2.31a.27.27,0,0,1,.24.09c0,.06,0,.14,0,.24l-3,5.25a.21.21,0,0,0,0,.14L64,35.77a.33.33,0,0,1,0,.14c0,.12-.08.19-.24.19H61.44a.33.33,0,0,1-.33-.21l-2.24-5.25a.12.12,0,0,0-.08-.06.07.07,0,0,0-.08,0L57.86,32a.35.35,0,0,0,0,.14v3.7a.28.28,0,0,1-.28.28H55.36A.27.27,0,0,1,55.16,36Z"/><path class="cls-1" d="M64.91,36a.27.27,0,0,1-.08-.2v-13a.28.28,0,0,1,.28-.28h2.17a.28.28,0,0,1,.28.28v13a.28.28,0,0,1-.28.28H65.11A.27.27,0,0,1,64.91,36Z"/><path class="cls-2" d="M.13,55.63a.27.27,0,0,1-.08-.2V39.52a.28.28,0,0,1,.28-.28h4a4.36,4.36,0,0,1,3.24,1.22A4.45,4.45,0,0,1,8.8,43.73v7.49a4.45,4.45,0,0,1-1.21,3.27,4.35,4.35,0,0,1-3.24,1.22h-4A.27.27,0,0,1,.13,55.63ZM2.9,53.36l1.41,0a1.52,1.52,0,0,0,1.26-.62,2.75,2.75,0,0,0,.51-1.66V43.89a2.69,2.69,0,0,0-.48-1.68,1.57,1.57,0,0,0-1.31-.62H2.9a.1.1,0,0,0-.12.12V53.24A.1.1,0,0,0,2.9,53.36Z"/><path class="cls-2" d="M17.93,44.43a.27.27,0,0,1-.2.08H13.21a.1.1,0,0,0-.12.12v3a.1.1,0,0,0,.12.12h2.59a.28.28,0,0,1,.28.28V49.8a.28.28,0,0,1-.28.28H13.21a.1.1,0,0,0-.12.12v3a.1.1,0,0,0,.12.12h4.52a.28.28,0,0,1,.28.28v1.79a.27.27,0,0,1-.08.2.27.27,0,0,1-.2.08H10.64a.28.28,0,0,1-.28-.28v-13a.28.28,0,0,1,.28-.28h7.09a.27.27,0,0,1,.2.08.27.27,0,0,1,.08.2v1.81A.27.27,0,0,1,17.93,44.43Z"/><path class="cls-2" d="M20,54.88a3.28,3.28,0,0,1-1.12-2.55V51.9a.28.28,0,0,1,.28-.28h2.12a.33.33,0,0,1,.2.06.18.18,0,0,1,.08.15V52a1.55,1.55,0,0,0,.38,1.11,1.3,1.3,0,0,0,1,.4,1.33,1.33,0,0,0,1.36-1.37,1.29,1.29,0,0,0-.46-1A15.82,15.82,0,0,0,22.08,50a20.84,20.84,0,0,1-1.73-1.24,4.9,4.9,0,0,1-1.11-1.31,3.51,3.51,0,0,1-.46-1.81A3.39,3.39,0,0,1,19.89,43a4.22,4.22,0,0,1,2.92-1,4.16,4.16,0,0,1,2.94,1,3.5,3.5,0,0,1,1.11,2.7v.26a.28.28,0,0,1-.28.28H24.46a.29.29,0,0,1-.2-.07.21.21,0,0,1-.08-.16v-.24a1.45,1.45,0,0,0-.38-1,1.46,1.46,0,0,0-1.94,0,1.28,1.28,0,0,0-.36,1,1.26,1.26,0,0,0,.4.92,12.7,12.7,0,0,0,1.67,1.25,23.55,23.55,0,0,1,2,1.45,4.47,4.47,0,0,1,1.06,1.27A3.34,3.34,0,0,1,27,52.13a3.47,3.47,0,0,1-1.14,2.72,4.25,4.25,0,0,1-3,1A4.2,4.2,0,0,1,20,54.88Z"/><path class="cls-2" d="M28.19,55.63a.27.27,0,0,1-.08-.2v-13a.28.28,0,0,1,.28-.28h2.17a.28.28,0,0,1,.28.28v13a.28.28,0,0,1-.28.28H28.39A.27.27,0,0,1,28.19,55.63Z"/><path class="cls-2" d="M33.28,54.85A3.6,3.6,0,0,1,32.15,52V45.78A3.58,3.58,0,0,1,33.28,43a4.32,4.32,0,0,1,3-1,4.33,4.33,0,0,1,3,1,3.63,3.63,0,0,1,1.14,2.83v.49a.28.28,0,0,1-.28.28H38a.28.28,0,0,1-.28-.28v-.54a1.45,1.45,0,0,0-.39-1.07,1.42,1.42,0,0,0-1-.39,1.4,1.4,0,0,0-1,.38,1.46,1.46,0,0,0-.38,1.08v6.29a1.43,1.43,0,0,0,.38,1.06,1.4,1.4,0,0,0,1,.38,1.44,1.44,0,0,0,1-.38,1.41,1.41,0,0,0,.39-1.06V50.53a.1.1,0,0,0-.12-.12h-.94a.28.28,0,0,1-.28-.28V48.77a.28.28,0,0,1,.28-.28h3.51a.28.28,0,0,1,.28.28V52a3.58,3.58,0,0,1-1.14,2.81,4.35,4.35,0,0,1-3,1A4.31,4.31,0,0,1,33.28,54.85Z"/><path class="cls-2" d="M41.75,55.63a.27.27,0,0,1-.08-.2v-13a.28.28,0,0,1,.28-.28h2.17a.31.31,0,0,1,.33.21l3.2,7.93s.06.07.09.06,0,0,0-.11l0-7.82a.27.27,0,0,1,.08-.2.27.27,0,0,1,.2-.08h2.14a.28.28,0,0,1,.28.28v13a.28.28,0,0,1-.28.28H48a.31.31,0,0,1-.33-.21l-3.18-7.93s-.06-.07-.09-.06,0,0,0,.11l0,7.82a.27.27,0,0,1-.08.2.27.27,0,0,1-.2.08H41.95A.27.27,0,0,1,41.75,55.63Z"/></g></g></svg>